<svg version="1.1" id="Layer_1" xmlns="http://www.w3.org/2000/svg" xmlns:xlink="http://www.w3.org/1999/xlink" x="0px" y="0px"
	 width="100%" viewBox="0 0 500 500" enable-background="new 0 0 500 500" xml:space="preserve">
<path fill="#00F8F8" opacity="1.000000" stroke="none" 
	d="
M1.000001,229.000000 
	C1.000000,210.979111 1.000000,192.958206 1.352427,174.762299 
	C2.109503,174.082275 2.792824,173.620346 2.878543,173.066025 
	C6.016702,152.772522 13.448630,134.112045 23.832474,116.472923 
	C33.730659,99.658791 46.096905,84.912430 61.079895,72.561981 
	C75.165329,60.951374 90.930161,51.906212 107.886543,44.997208 
	C121.746559,39.349838 135.941238,35.148350 150.946457,33.953724 
	C155.308838,33.606415 159.632034,32.767040 164.276642,32.445358 
	C165.232040,32.837147 165.884003,33.024181 166.535934,33.024021 
	C223.391373,33.009922 280.246826,32.981388 337.550537,32.974426 
	C345.563812,33.994625 353.127625,35.003105 360.694000,35.992245 
	C384.249817,39.071655 405.322723,48.877728 424.830719,61.608234 
	C442.438324,73.098610 457.367096,87.833611 469.719666,105.108223 
	C485.027252,126.515320 495.096191,149.957474 499.100067,175.996216 
	C499.215027,176.743851 500.343872,177.335571 501.000000,178.000000 
	C501.000000,194.354233 501.000000,210.708450 500.647156,227.237335 
	C499.863312,228.414413 499.219330,229.378983 499.033478,230.424973 
	C496.558777,244.351288 492.643799,257.876099 486.648743,270.665649 
	C475.988647,293.407227 461.935089,313.819763 441.929413,329.325073 
	C430.832794,337.925446 419.077667,345.860596 406.890503,352.819183 
	C393.954529,360.205383 379.726013,365.101440 365.044159,367.800873 
	C353.830688,369.862610 342.363586,370.544952 330.718048,371.537048 
	C329.936981,371.155090 329.447174,371.008636 328.957336,371.008514 
	C293.224030,370.998627 257.490753,370.990570 221.757507,371.043091 
	C220.548126,371.044861 219.339661,371.665955 218.000885,372.322327 
	C206.556564,381.958893 195.193283,391.212891 183.941650,400.600739 
	C173.035812,409.700073 162.299179,419.002228 151.390335,428.097870 
	C135.379013,441.447876 119.280609,454.693420 102.799339,467.897552 
	C101.918915,466.059418 101.060875,464.308136 101.056801,462.554901 
	C100.977577,428.414886 101.027672,394.274536 100.910004,360.134735 
	C100.904137,358.433411 99.618813,356.736481 98.962204,355.023438 
	C98.995186,355.009338 98.966789,355.075195 98.959290,354.778076 
	C98.602295,354.335968 98.252808,354.191010 97.529961,354.018982 
	C92.818008,351.872314 88.239861,350.131866 84.181770,347.568207 
	C65.350502,335.671783 48.602375,321.435333 35.013050,303.594360 
	C24.520853,289.819458 16.149021,274.886536 10.421416,258.625977 
	C7.211254,249.512405 5.427083,239.898880 2.893780,230.539474 
	C2.721276,229.902145 1.652139,229.507507 1.000001,229.000000 
M112.851746,304.019409 
	C139.293411,304.012970 165.735123,304.027374 192.176605,303.956207 
	C194.067062,303.951111 195.955841,303.319672 198.326660,303.627533 
	C207.213974,303.368317 216.101273,303.109131 225.916840,302.983398 
	C239.012390,302.655670 252.106430,302.236328 265.203827,302.019958 
	C289.622437,301.616608 314.043427,301.359406 338.462555,300.983337 
	C348.600891,300.827240 358.971069,293.733704 361.938904,284.824127 
	C367.539856,268.010071 354.755005,251.553879 338.728943,251.986160 
	C323.817047,252.388397 308.903473,252.797760 293.987946,252.975403 
	C282.336334,253.114166 270.680542,252.902756 258.419220,252.263535 
	C250.608398,252.457901 242.797562,252.652267 234.583771,253.011200 
	C234.583771,253.011200 234.148514,253.016678 233.197769,252.897064 
	C224.734695,252.934875 216.270233,252.894547 207.809174,253.045273 
	C203.902191,253.114868 200.001877,253.557693 195.159348,253.980896 
	C160.745453,254.320541 126.331551,254.660202 91.917656,254.999634 
	C91.751068,255.001282 91.583740,254.989807 91.417946,255.001434 
	C77.813751,255.955170 68.681175,261.208954 65.395302,275.312958 
	C62.331429,288.463959 71.494690,302.335724 85.699478,304.673462 
	C94.437843,304.506134 103.176216,304.338837 112.851746,304.019409 
M390.785706,152.971741 
	C391.857452,152.643463 392.912170,152.237473 394.003479,151.998688 
	C408.099152,148.914459 417.072052,133.239136 411.838379,119.914680 
	C407.072021,107.779945 398.374725,103.131226 383.311951,103.100471 
	C286.719360,102.903259 190.126175,102.983253 93.533264,103.065720 
	C89.995369,103.068741 86.326469,103.608582 82.943596,104.637741 
	C68.026138,109.176010 63.034748,120.119781 65.282219,133.667099 
	C67.036049,144.238861 74.583229,151.897522 86.671318,152.740601 
	C88.496826,152.826950 90.322319,152.988663 92.147835,152.988892 
	C189.768341,153.001144 287.388824,153.000488 385.009338,152.994125 
	C386.673248,152.994019 388.337128,152.907867 390.785706,152.971741 
M413.917786,227.974762 
	C422.938812,227.930130 431.959869,227.885498 441.734528,227.755432 
	C444.457886,226.843033 447.358337,226.269623 449.872314,224.956375 
	C458.309052,220.549225 464.667999,211.231522 462.879089,199.186035 
	C461.457764,189.615295 455.931580,182.316986 446.338684,180.251678 
	C438.086243,178.474960 429.414185,178.199936 420.917358,178.094864 
	C400.619232,177.843765 380.315033,178.084641 359.080963,178.027176 
	C269.662262,178.018524 180.243576,178.005585 90.824905,178.035828 
	C89.244446,178.036362 87.664169,178.555664 85.298706,178.981430 
	C70.665062,182.284363 63.267170,192.470047 65.146034,207.686447 
	C66.426826,218.059158 74.379524,227.065536 86.666260,227.742554 
	C96.116173,227.787079 105.566086,227.831604 115.945518,227.986420 
	C134.064331,227.990997 152.183167,228.011642 170.301971,227.996887 
	C209.196991,227.965195 248.092010,227.915253 287.919312,227.972412 
	C321.283875,227.939224 354.648407,227.906021 388.942535,227.986038 
	C396.956787,227.948929 404.971039,227.911804 413.917786,227.974762 
z"/>
<path fill="transparent" opacity="1.000000" stroke="none" 
	d="
M103.219322,467.983521 
	C119.280609,454.693420 135.379013,441.447876 151.390335,428.097870 
	C162.299179,419.002228 173.035812,409.700073 183.941650,400.600739 
	C195.193283,391.212891 206.556564,381.958893 218.456177,372.318054 
	C256.364014,371.940186 293.686646,371.890533 331.009308,371.840881 
	C342.363586,370.544952 353.830688,369.862610 365.044159,367.800873 
	C379.726013,365.101440 393.954529,360.205383 406.890503,352.819183 
	C419.077667,345.860596 430.832794,337.925446 441.929413,329.325073 
	C461.935089,313.819763 475.988647,293.407227 486.648743,270.665649 
	C492.643799,257.876099 496.558777,244.351288 499.033478,230.424973 
	C499.219330,229.378983 499.863312,228.414413 500.647156,227.705994 
	C501.000000,318.961853 501.000000,409.923737 501.000000,500.942810 
	C334.441345,500.942810 167.882645,500.942810 1.000000,500.942810 
	C1.000000,410.646027 1.000000,320.291687 1.000001,229.468658 
	C1.652139,229.507507 2.721276,229.902145 2.893780,230.539474 
	C5.427083,239.898880 7.211254,249.512405 10.421416,258.625977 
	C16.149021,274.886536 24.520853,289.819458 35.013050,303.594360 
	C48.602375,321.435333 65.350502,335.671783 84.181770,347.568207 
	C88.239861,350.131866 92.818008,351.872314 97.596527,354.285126 
	C98.346565,354.743927 98.656677,354.909576 98.966789,355.075195 
	C98.966789,355.075195 98.995186,355.009338 99.118149,355.421997 
	C99.494263,357.566406 99.963974,359.297668 99.967758,361.029968 
	C100.017143,383.637329 100.000549,406.244843 100.000549,428.852295 
	C100.000549,442.139862 100.000549,455.427460 100.000549,469.415222 
	C101.375946,468.803467 102.297638,468.393494 103.219322,467.983521 
z"/>
<path fill="transparent" opacity="1.000000" stroke="none" 
	d="
M163.973190,32.153229 
	C159.632034,32.767040 155.308838,33.606415 150.946457,33.953724 
	C135.941238,35.148350 121.746559,39.349838 107.886543,44.997208 
	C90.930161,51.906212 75.165329,60.951374 61.079895,72.561981 
	C46.096905,84.912430 33.730659,99.658791 23.832474,116.472923 
	C13.448630,134.112045 6.016702,152.772522 2.878543,173.066025 
	C2.792824,173.620346 2.109503,174.082275 1.352427,174.293640 
	C1.000000,116.363014 1.000000,58.726032 1.000000,1.044526 
	C167.551178,1.044526 334.102356,1.044526 501.000000,1.044526 
	C501.000000,59.687107 501.000000,118.374893 501.000000,177.531342 
	C500.343872,177.335571 499.215027,176.743851 499.100067,175.996216 
	C495.096191,149.957474 485.027252,126.515320 469.719666,105.108223 
	C457.367096,87.833611 442.438324,73.098610 424.830719,61.608234 
	C405.322723,48.877728 384.249817,39.071655 360.694000,35.992245 
	C353.127625,35.003105 345.563812,33.994625 337.338745,32.586369 
	C335.187256,32.114258 333.695862,31.995489 332.204468,31.995319 
	C287.771759,31.990257 243.339035,31.986958 198.906326,32.008522 
	C187.261932,32.014172 175.617569,32.102741 163.973190,32.153229 
z"/>
<path fill="transparent" opacity="1.000000" stroke="none" 
	d="
M86.079346,227.166840 
	C74.379524,227.065536 66.426826,218.059158 65.146034,207.686447 
	C63.267170,192.470047 70.665062,182.284363 86.149986,178.974884 
	C176.654831,178.978958 266.308411,178.993378 355.961975,178.963852 
	C357.312500,178.963394 358.662842,178.417969 360.013275,178.126862 
	C380.315033,178.084641 400.619232,177.843765 420.917358,178.094864 
	C429.414185,178.199936 438.086243,178.474960 446.338684,180.251678 
	C455.931580,182.316986 461.457764,189.615295 462.879089,199.186035 
	C464.667999,211.231522 458.309052,220.549225 449.872314,224.956375 
	C447.358337,226.269623 444.457886,226.843033 441.137878,227.433380 
	C434.809875,227.073914 429.076355,226.926529 423.348022,227.040161 
	C419.889618,227.108795 416.439270,227.582825 412.985291,227.874695 
	C404.971039,227.911804 396.956787,227.948929 388.266693,227.553345 
	C354.902649,227.080521 322.214447,227.033813 289.526245,227.036942 
	C288.679810,227.037033 287.833435,227.581955 286.987030,227.872787 
	C248.092010,227.915253 209.196991,227.965195 170.301971,227.996887 
	C152.183167,228.011642 134.064331,227.990997 115.270393,227.554291 
	C105.089958,227.137039 95.584656,227.151947 86.079346,227.166840 
z"/>
<path fill="transparent" opacity="1.000000" stroke="none" 
	d="
M86.083748,152.167114 
	C74.583229,151.897522 67.036049,144.238861 65.282219,133.667099 
	C63.034748,120.119781 68.026138,109.176010 82.943596,104.637741 
	C86.326469,103.608582 89.995369,103.068741 93.533264,103.065720 
	C190.126175,102.983253 286.719360,102.903259 383.311951,103.100471 
	C398.374725,103.131226 407.072021,107.779945 411.838379,119.914680 
	C417.072052,133.239136 408.099152,148.914459 394.003479,151.998688 
	C392.912170,152.237473 391.857452,152.643463 390.179199,152.544678 
	C388.410217,152.078384 387.247742,152.004822 386.085236,152.004761 
	C287.578918,151.999588 189.072586,151.999359 90.566261,152.007141 
	C89.072083,152.007263 87.577919,152.111481 86.083748,152.167114 
z"/>
<path fill="transparent" opacity="1.000000" stroke="none" 
	d="
M197.845398,302.979431 
	C195.955841,303.319672 194.067062,303.951111 192.176605,303.956207 
	C165.735123,304.027374 139.293411,304.012970 111.925964,304.025726 
	C102.352303,304.077423 93.704414,304.122803 85.056526,304.168213 
	C71.494690,302.335724 62.331429,288.463959 65.395302,275.312958 
	C68.681175,261.208954 77.813751,255.955170 91.417946,255.001434 
	C91.583740,254.989807 91.751068,255.001282 91.917656,254.999634 
	C126.331551,254.660202 160.745453,254.320541 196.086288,253.972366 
	C207.901794,253.978607 218.790604,254.031357 229.678665,253.963882 
	C231.170502,253.954651 232.658661,253.347168 234.148514,253.016678 
	C234.148514,253.016678 234.583771,253.011200 235.253967,252.989349 
	C243.624969,252.927322 251.325790,252.887146 259.026611,252.846970 
	C270.680542,252.902756 282.336334,253.114166 293.987946,252.975403 
	C308.903473,252.797760 323.817047,252.388397 338.728943,251.986160 
	C354.755005,251.553879 367.539856,268.010071 361.938904,284.824127 
	C358.971069,293.733704 348.600891,300.827240 338.462555,300.983337 
	C314.043427,301.359406 289.622437,301.616608 265.203827,302.019958 
	C252.106430,302.236328 239.012390,302.655670 225.234741,302.549408 
	C218.129501,302.075806 211.704880,301.942780 205.283936,302.043701 
	C202.800125,302.082733 200.324661,302.651825 197.845398,302.979431 
z"/>
<path fill="transparent" opacity="1.000000" stroke="none" 
	d="
M86.377533,152.453857 
	C87.577919,152.111481 89.072083,152.007263 90.566261,152.007141 
	C189.072586,151.999359 287.578918,151.999588 386.085236,152.004761 
	C387.247742,152.004822 388.410217,152.078384 389.786865,152.489746 
	C388.337128,152.907867 386.673248,152.994019 385.009338,152.994125 
	C287.388824,153.000488 189.768341,153.001144 92.147835,152.988892 
	C90.322319,152.988663 88.496826,152.826950 86.377533,152.453857 
z"/>
<path fill="transparent" opacity="1.000000" stroke="none" 
	d="
M359.547119,178.077026 
	C358.662842,178.417969 357.312500,178.963394 355.961975,178.963852 
	C266.308411,178.993378 176.654831,178.978958 86.542542,178.900620 
	C87.664169,178.555664 89.244446,178.036362 90.824905,178.035828 
	C180.243576,178.005585 269.662262,178.018524 359.547119,178.077026 
z"/>
<path fill="transparent" opacity="1.000000" stroke="none" 
	d="
M164.276642,32.445362 
	C175.617569,32.102741 187.261932,32.014172 198.906326,32.008522 
	C243.339035,31.986958 287.771759,31.990257 332.204468,31.995319 
	C333.695862,31.995489 335.187256,32.114258 336.890442,32.565804 
	C280.246826,32.981388 223.391373,33.009922 166.535934,33.024021 
	C165.884003,33.024181 165.232040,32.837147 164.276642,32.445362 
z"/>
<path fill="transparent" opacity="1.000000" stroke="none" 
	d="
M102.799347,467.897583 
	C102.297638,468.393494 101.375946,468.803467 100.000549,469.415222 
	C100.000549,455.427460 100.000549,442.139862 100.000549,428.852295 
	C100.000549,406.244843 100.017143,383.637329 99.967758,361.029968 
	C99.963974,359.297668 99.494263,357.566406 99.085175,355.436096 
	C99.618813,356.736481 100.904137,358.433411 100.910004,360.134735 
	C101.027672,394.274536 100.977577,428.414886 101.056801,462.554901 
	C101.060875,464.308136 101.918915,466.059418 102.799347,467.897583 
z"/>
<path fill="transparent" opacity="1.000000" stroke="none" 
	d="
M330.718048,371.537048 
	C293.686646,371.890533 256.364014,371.940186 218.586060,371.994110 
	C219.339661,371.665955 220.548126,371.044861 221.757507,371.043091 
	C257.490753,370.990570 293.224030,370.998627 328.957336,371.008514 
	C329.447174,371.008636 329.936981,371.155090 330.718048,371.537048 
z"/>
<path fill="transparent" opacity="1.000000" stroke="none" 
	d="
M287.453186,227.922607 
	C287.833435,227.581955 288.679810,227.037033 289.526245,227.036942 
	C322.214447,227.033813 354.902649,227.080521 387.801910,227.496735 
	C354.648407,227.906021 321.283875,227.939224 287.453186,227.922607 
z"/>
<path fill="transparent" opacity="1.000000" stroke="none" 
	d="
M233.673141,252.956879 
	C232.658661,253.347168 231.170502,253.954651 229.678665,253.963882 
	C218.790604,254.031357 207.901794,253.978607 196.555878,253.897568 
	C200.001877,253.557693 203.902191,253.114868 207.809174,253.045273 
	C216.270233,252.894547 224.734695,252.934875 233.673141,252.956879 
z"/>
<path fill="transparent" opacity="1.000000" stroke="none" 
	d="
M198.086029,303.303497 
	C200.324661,302.651825 202.800125,302.082733 205.283936,302.043701 
	C211.704880,301.942780 218.129501,302.075806 224.770630,302.482666 
	C216.101273,303.109131 207.213974,303.368317 198.086029,303.303497 
z"/>
<path fill="transparent" opacity="1.000000" stroke="none" 
	d="
M86.372803,227.454697 
	C95.584656,227.151947 105.089958,227.137039 114.805634,227.499146 
	C105.566086,227.831604 96.116173,227.787079 86.372803,227.454697 
z"/>
<path fill="transparent" opacity="1.000000" stroke="none" 
	d="
M413.451538,227.924728 
	C416.439270,227.582825 419.889618,227.108795 423.348022,227.040161 
	C429.076355,226.926529 434.809875,227.073914 440.761047,227.476105 
	C431.959869,227.885498 422.938812,227.930130 413.451538,227.924728 
z"/>
<path fill="transparent" opacity="1.000000" stroke="none" 
	d="
M85.378006,304.420837 
	C93.704414,304.122803 102.352303,304.077423 111.457382,304.101776 
	C103.176216,304.338837 94.437843,304.506134 85.378006,304.420837 
z"/>
<path fill="transparent" opacity="1.000000" stroke="none" 
	d="
M258.722900,252.555252 
	C251.325790,252.887146 243.624969,252.927322 235.455444,252.907074 
	C242.797562,252.652267 250.608398,252.457901 258.722900,252.555252 
z"/>
<path fill="transparent" opacity="1.000000" stroke="none" 
	d="
M98.959290,354.778076 
	C98.656677,354.909576 98.346565,354.743927 97.969879,354.312164 
	C98.252808,354.191010 98.602295,354.335968 98.959290,354.778076 
z"/>
</svg>