<?xml version="1.0" standalone="no"?>
<!DOCTYPE svg PUBLIC "-//W3C//DTD SVG 20010904//EN"
 "http://www.w3.org/TR/2001/REC-SVG-20010904/DTD/svg10.dtd">
<svg version="1.0" xmlns="http://www.w3.org/2000/svg"
 width="500.000000pt" height="500.000000pt" viewBox="0 0 500.000000 500.000000"
 preserveAspectRatio="xMidYMid meet">

<g transform="translate(0.000000,500.000000) scale(0.100000,-0.100000)"
fill="#00F8F8" stroke="none">
<path d="M2077 4234 c-213 -38 -419 -158 -547 -317 -101 -125 -189 -333 -226
-532 -22 -119 -30 -487 -15 -635 31 -292 133 -532 301 -701 216 -219 498 -310
872 -281 85 7 197 23 251 36 l97 23 0 -503 0 -504 230 0 230 0 0 935 0 935
345 0 345 0 0 190 0 190 -915 0 -915 0 0 -190 0 -190 315 0 315 0 -2 -207 -3
-207 -40 -28 c-61 -43 -146 -68 -271 -80 -199 -20 -346 24 -459 137 -143 142
-195 328 -195 700 0 292 23 440 92 581 85 175 232 264 438 264 235 0 380 -110
436 -330 l18 -70 243 0 c188 0 243 3 243 13 -1 41 -45 212 -73 282 -43 105
-95 184 -172 260 -168 169 -391 246 -705 244 -86 0 -190 -7 -233 -15z"/>
</g>
</svg>
