<svg version="1.1" id="Layer_1" xmlns="http://www.w3.org/2000/svg" xmlns:xlink="http://www.w3.org/1999/xlink" x="0px" y="0px"
	 width="100%" viewBox="0 0 500 500" enable-background="new 0 0 500 500" xml:space="preserve">
<path fill="#00F8F8" opacity="1.000000" stroke="none" 
	d="
M1.000006,441.000000 
	C1.000000,314.644043 1.000000,188.288055 1.336123,61.757744 
	C2.100232,60.924633 2.730513,60.320938 2.927045,59.599144 
	C10.779735,30.758978 29.108860,12.287722 57.760208,3.899031 
	C59.322479,3.441621 60.593441,1.989237 62.000000,1.000000 
	C187.022644,1.000000 312.045288,1.000000 437.247864,1.342123 
	C438.088135,2.115769 438.696930,2.790380 439.416412,2.942919 
	C453.858002,6.004690 466.610962,12.619991 477.115021,22.775814 
	C487.735107,33.043850 495.336548,45.463276 499.086334,59.991226 
	C499.288208,60.773354 500.342499,61.335468 501.000000,62.000000 
	C501.000000,188.022644 501.000000,314.045288 500.663330,440.241974 
	C499.886139,441.235840 499.248505,442.007477 499.034515,442.882660 
	C495.475800,457.438599 487.996490,469.868042 477.270538,480.033936 
	C467.718994,489.086761 456.527161,495.843414 443.501129,499.071808 
	C442.879608,499.225861 442.494934,500.335388 442.000000,501.000000 
	C314.977356,501.000000 187.954727,501.000000 60.755333,500.672668 
	C59.766453,499.890076 59.005604,499.255341 58.134495,499.006409 
	C44.303928,495.053467 32.142834,488.046234 22.316879,477.662262 
	C12.789331,467.593567 5.706595,455.885620 2.855737,442.004028 
	C2.764751,441.561005 1.641856,441.329895 1.000006,441.000000 
M102.073524,399.528290 
	C104.312569,405.636505 108.615372,408.264832 115.168137,408.067535 
	C124.140785,407.797333 133.131866,407.829346 142.107269,408.049255 
	C150.652100,408.258575 157.683884,406.417603 160.688583,396.319458 
	C160.792191,395.335541 160.986298,394.351685 160.986526,393.367737 
	C161.001007,329.010559 161.005142,264.653381 160.965195,200.296219 
	C160.964325,198.875549 160.444382,197.455200 159.861313,195.356659 
	C158.451859,189.548309 154.364349,186.512512 148.329834,184.311325 
	C139.279663,184.207336 130.229416,184.032547 121.179359,184.042435 
	C118.455048,184.045410 115.731308,184.561905 112.260780,184.999130 
	C107.153748,186.141846 103.758530,189.254669 101.315857,194.694153 
	C101.210884,195.848145 101.014305,197.002106 101.014046,198.156113 
	C100.999336,263.445770 100.995163,328.735413 101.035049,394.025024 
	C101.036018,395.622528 101.544212,397.219696 102.073524,399.528290 
M219.318512,194.650955 
	C219.212769,195.805740 219.014709,196.960526 219.014450,198.115326 
	C218.999496,263.434326 218.995193,328.753357 219.035416,394.072327 
	C219.036407,395.670715 219.550293,397.268738 220.003525,399.595673 
	C222.144516,405.578491 226.419434,408.156708 232.730255,408.040771 
	C241.532364,407.879089 250.343994,407.827789 259.143494,408.049164 
	C267.688599,408.264160 274.697906,406.394775 277.691498,396.311890 
	C277.793793,395.494843 277.985260,394.677826 277.985596,393.860748 
	C278.002777,352.822845 278.011078,311.784912 277.970459,270.747040 
	C277.969238,269.499786 277.439148,268.253021 277.018768,266.203308 
	C277.348694,264.626160 277.608917,263.030609 278.019409,261.474731 
	C281.660980,247.672852 289.981445,238.171631 304.132446,235.095016 
	C310.182526,233.779633 316.636414,234.389313 322.894501,233.949081 
	C336.153137,233.016388 348.308167,243.421005 348.312744,258.653259 
	C348.208435,259.635895 348.013245,260.618469 348.012909,261.601135 
	C347.997833,304.971680 347.992035,348.342255 348.035004,391.712769 
	C348.036407,393.132629 348.555176,394.551971 349.164215,396.683594 
	C351.560516,407.076050 355.490540,408.040436 365.004395,408.006958 
	C374.119904,407.974884 383.235596,407.990723 392.351227,408.003021 
	C398.958282,408.011932 403.594604,405.048248 406.664490,398.281799 
	C406.762878,397.626587 406.947632,396.971375 406.947388,396.316193 
	C406.932861,355.539154 406.903259,314.762085 406.751923,273.255615 
	C406.504822,272.672363 406.059052,272.095581 406.039948,271.504944 
	C405.664368,259.897034 406.005646,248.220581 404.849670,236.693588 
	C403.005280,218.301880 393.956757,203.624847 378.808746,193.052612 
	C366.733063,184.624619 352.999420,181.011612 338.343201,181.050323 
	C333.590637,181.062866 328.840759,181.684219 324.087646,181.996552 
	C310.601318,182.882828 298.027374,186.737091 286.625488,193.993073 
	C281.999573,196.936951 277.769043,200.502182 272.900177,204.125824 
	C273.503662,194.750565 271.713501,187.403000 261.323395,184.309662 
	C255.260910,184.206024 249.196930,183.972305 243.136459,184.042511 
	C238.775040,184.093048 234.418304,184.548889 229.376755,185.118683 
	C224.885910,186.673187 221.573792,189.492477 219.318512,194.650955 
M98.392517,117.100357 
	C94.524605,125.079720 95.899277,133.635712 96.232513,141.913055 
	C96.418488,146.532654 98.113693,151.424881 100.315445,155.562866 
	C105.423752,165.163452 115.108025,167.228149 124.736862,167.800720 
	C131.175644,168.183609 137.764191,166.913834 144.219498,165.943222 
	C153.159607,164.598984 159.513214,159.921249 163.078445,151.225220 
	C166.993744,141.675247 166.771561,131.927521 164.793167,122.299866 
	C163.261932,114.848267 159.355820,108.353622 151.814850,104.976494 
	C140.442398,99.883499 128.735901,99.943336 116.839874,102.598160 
	C108.670044,104.421402 102.384514,108.646713 98.392517,117.100357 
z"/>
<path fill="transparent" opacity="1.000000" stroke="none" 
	d="
M501.000000,61.531342 
	C500.342499,61.335468 499.288208,60.773354 499.086334,59.991226 
	C495.336548,45.463276 487.735107,33.043850 477.115021,22.775814 
	C466.610962,12.619991 453.858002,6.004690 439.416412,2.942919 
	C438.696930,2.790380 438.088135,2.115769 437.713898,1.342123 
	C458.925629,1.000000 479.851288,1.000000 501.000000,1.000000 
	C501.000000,21.020342 501.000000,41.041512 501.000000,61.531342 
z"/>
<path fill="transparent" opacity="1.000000" stroke="none" 
	d="
M61.531342,1.000000 
	C60.593441,1.989237 59.322479,3.441621 57.760208,3.899031 
	C29.108860,12.287722 10.779735,30.758978 2.927045,59.599144 
	C2.730513,60.320938 2.100232,60.924633 1.336123,61.291702 
	C1.000000,41.072586 1.000000,21.145168 1.000000,1.000000 
	C21.020369,1.000000 41.041527,1.000000 61.531342,1.000000 
z"/>
<path fill="transparent" opacity="1.000000" stroke="none" 
	d="
M442.468628,501.000000 
	C442.494934,500.335388 442.879608,499.225861 443.501129,499.071808 
	C456.527161,495.843414 467.718994,489.086761 477.270538,480.033936 
	C487.996490,469.868042 495.475800,457.438599 499.034515,442.882660 
	C499.248505,442.007477 499.886139,441.235840 500.663330,440.708008 
	C501.000000,460.926178 501.000000,480.852386 501.000000,501.000000 
	C481.646332,501.000000 462.291840,501.000000 442.468628,501.000000 
z"/>
<path fill="transparent" opacity="1.000000" stroke="none" 
	d="
M1.000006,441.468628 
	C1.641856,441.329895 2.764751,441.561005 2.855737,442.004028 
	C5.706595,455.885620 12.789331,467.593567 22.316879,477.662262 
	C32.142834,488.046234 44.303928,495.053467 58.134495,499.006409 
	C59.005604,499.255341 59.766453,499.890076 60.289291,500.672668 
	C40.405910,501.000000 20.811823,501.000000 1.000000,501.000000 
	C1.000000,481.312988 1.000000,461.625153 1.000006,441.468628 
z"/>
<path fill="transparent" opacity="1.000000" stroke="none" 
	d="
M277.173309,396.946106 
	C274.697906,406.394775 267.688599,408.264160 259.143494,408.049164 
	C250.343994,407.827789 241.532364,407.879089 232.730255,408.040771 
	C226.419434,408.156708 222.144516,405.578491 219.977234,398.777832 
	C219.967560,338.804230 219.991074,279.648529 219.993286,220.492798 
	C219.993622,211.663834 219.893921,202.834885 219.840515,194.005920 
	C221.573792,189.492477 224.885910,186.673187 230.176392,185.046967 
	C241.303635,184.927094 251.631241,184.878922 261.958862,184.830750 
	C271.713501,187.403000 273.503662,194.750565 272.900177,204.125824 
	C277.769043,200.502182 281.999573,196.936951 286.625488,193.993073 
	C298.027374,186.737091 310.601318,182.882828 324.087646,181.996552 
	C328.840759,181.684219 333.590637,181.062866 338.343201,181.050323 
	C352.999420,181.011612 366.733063,184.624619 378.808746,193.052612 
	C393.956757,203.624847 403.005280,218.301880 404.849670,236.693588 
	C406.005646,248.220581 405.664368,259.897034 406.039948,271.504944 
	C406.059052,272.095581 406.504822,272.672363 406.436890,273.831055 
	C406.136810,315.913727 406.151764,357.420959 406.166718,398.928162 
	C403.594604,405.048248 398.958282,408.011932 392.351227,408.003021 
	C383.235596,407.990723 374.119904,407.974884 365.004395,408.006958 
	C355.490540,408.040436 351.560516,407.076050 349.072571,395.866028 
	C348.987244,379.766083 349.014587,364.483704 348.995483,349.201385 
	C348.957550,318.806854 348.894104,288.412292 348.841187,258.017761 
	C348.308167,243.421005 336.153137,233.016388 322.894501,233.949081 
	C316.636414,234.389313 310.182526,233.779633 304.132446,235.095016 
	C289.981445,238.171631 281.660980,247.672852 278.019409,261.474731 
	C277.608917,263.030609 277.348694,264.626160 277.010132,267.068542 
	C277.001038,283.044769 276.981201,298.155731 277.004456,313.266663 
	C277.047394,341.159851 277.115631,369.052948 277.173309,396.946106 
z"/>
<path fill="transparent" opacity="1.000000" stroke="none" 
	d="
M148.966537,184.833252 
	C154.364349,186.512512 158.451859,189.548309 159.941650,196.157242 
	C160.014633,260.302521 160.004684,323.647247 160.007156,386.991943 
	C160.007278,390.313263 160.113113,393.634552 160.169739,396.955872 
	C157.683884,406.417603 150.652100,408.258575 142.107269,408.049255 
	C133.131866,407.829346 124.140785,407.797333 115.168137,408.067535 
	C108.615372,408.264832 104.312569,405.636505 102.012115,398.725403 
	C101.967384,335.128418 101.988075,272.334351 101.993309,209.540283 
	C101.993744,204.379990 101.889191,199.219711 101.833420,194.059418 
	C103.758530,189.254669 107.153748,186.141846 113.098846,184.991043 
	C125.613457,184.933060 137.289993,184.883163 148.966537,184.833252 
z"/>
<path fill="transparent" opacity="1.000000" stroke="none" 
	d="
M98.656998,116.808899 
	C102.384514,108.646713 108.670044,104.421402 116.839874,102.598160 
	C128.735901,99.943336 140.442398,99.883499 151.814850,104.976494 
	C159.355820,108.353622 163.261932,114.848267 164.793167,122.299866 
	C166.771561,131.927521 166.993744,141.675247 163.078445,151.225220 
	C159.513214,159.921249 153.159607,164.598984 144.219498,165.943222 
	C137.764191,166.913834 131.175644,168.183609 124.736862,167.800720 
	C115.108025,167.228149 105.423752,165.163452 100.315445,155.562866 
	C98.113693,151.424881 96.418488,146.532654 96.232513,141.913055 
	C95.899277,133.635712 94.524605,125.079720 98.656998,116.808899 
z"/>
<path fill="transparent" opacity="1.000000" stroke="none" 
	d="
M219.579514,194.328430 
	C219.893921,202.834885 219.993622,211.663834 219.993286,220.492798 
	C219.991074,279.648529 219.967560,338.804230 219.887955,398.413452 
	C219.550293,397.268738 219.036407,395.670715 219.035416,394.072327 
	C218.995193,328.753357 218.999496,263.434326 219.014450,198.115326 
	C219.014709,196.960526 219.212769,195.805740 219.579514,194.328430 
z"/>
<path fill="transparent" opacity="1.000000" stroke="none" 
	d="
M101.574631,194.376785 
	C101.889191,199.219711 101.993744,204.379990 101.993309,209.540283 
	C101.988075,272.334351 101.967384,335.128418 101.883270,398.369751 
	C101.544212,397.219696 101.036018,395.622528 101.035049,394.025024 
	C100.995163,328.735413 100.999336,263.445770 101.014046,198.156113 
	C101.014305,197.002106 101.210884,195.848145 101.574631,194.376785 
z"/>
<path fill="transparent" opacity="1.000000" stroke="none" 
	d="
M160.429153,396.637665 
	C160.113113,393.634552 160.007278,390.313263 160.007156,386.991943 
	C160.004684,323.647247 160.014633,260.302521 160.094284,196.496262 
	C160.444382,197.455200 160.964325,198.875549 160.965195,200.296219 
	C161.005142,264.653381 161.001007,329.010559 160.986526,393.367737 
	C160.986298,394.351685 160.792191,395.335541 160.429153,396.637665 
z"/>
<path fill="transparent" opacity="1.000000" stroke="none" 
	d="
M348.576965,258.335510 
	C348.894104,288.412292 348.957550,318.806854 348.995483,349.201385 
	C349.014587,364.483704 348.987244,379.766083 348.906860,395.510010 
	C348.555176,394.551971 348.036407,393.132629 348.035004,391.712769 
	C347.992035,348.342255 347.997833,304.971680 348.012909,261.601135 
	C348.013245,260.618469 348.208435,259.635895 348.576965,258.335510 
z"/>
<path fill="transparent" opacity="1.000000" stroke="none" 
	d="
M277.432404,396.628998 
	C277.115631,369.052948 277.047394,341.159851 277.004456,313.266663 
	C276.981201,298.155731 277.001038,283.044769 277.078552,267.469910 
	C277.439148,268.253021 277.969238,269.499786 277.970459,270.747040 
	C278.011078,311.784912 278.002777,352.822845 277.985596,393.860748 
	C277.985260,394.677826 277.793793,395.494843 277.432404,396.628998 
z"/>
<path fill="transparent" opacity="1.000000" stroke="none" 
	d="
M406.415588,398.604980 
	C406.151764,357.420959 406.136810,315.913727 406.498444,274.195801 
	C406.903259,314.762085 406.932861,355.539154 406.947388,396.316193 
	C406.947632,396.971375 406.762878,397.626587 406.415588,398.604980 
z"/>
<path fill="transparent" opacity="1.000000" stroke="none" 
	d="
M148.648193,184.572296 
	C137.289993,184.883163 125.613457,184.933060 113.472107,184.913055 
	C115.731308,184.561905 118.455048,184.045410 121.179359,184.042435 
	C130.229416,184.032547 139.279663,184.207336 148.648193,184.572296 
z"/>
<path fill="transparent" opacity="1.000000" stroke="none" 
	d="
M261.641113,184.570206 
	C251.631241,184.878922 241.303635,184.927094 230.517746,184.899597 
	C234.418304,184.548889 238.775040,184.093048 243.136459,184.042511 
	C249.196930,183.972305 255.260910,184.206024 261.641113,184.570206 
z"/>
</svg>